# xmcd
#
# Track frame offsets:
#	150
#	16014
#	28574
#	47231
#	67220
#	87635
#	104290
#	124359
#	138551
#	154771
#	171361
#	187928
#	204557
#	220179
#	237444
#	255086
#	271190
#	291295
#	309637
#	338301
#
# Disc length: 4737 seconds
#
# Revision: 1
# Processed by: cddbd v1.5.2PL0 Copyright (c) Steve Scherf et al.
# Submitted via: audiograbber 1.83.01
#
DISCID=22127f14
DTITLE=Shania Twain - The Rhythm Tracks
DYEAR=1999
DGENRE=Country
TTITLE0=Crime Of The Century
TTITLE1=God Ain't Gonna Getcha For That
TTITLE2=Any Man Of Mine
TTITLE3=Whose Bed Have Your Boots Been Under?
TTITLE4=(If You're Not In It For Love) I'm Outta Here
TTITLE5=If It Don't Take Two
TTITLE6=You Win My Love
TTITLE7=No One Needs To Know
TTITLE8=Don't Be Stupid (You Know I Love You)
TTITLE9=When
TTITLE10=That Don't Impress Me Much
TTITLE11=Black Eyes, Blue Tears
TTITLE12=I'm Holdin' On To Your Love (To Save My Life)
TTITLE13=Whatever You Do! Don't!
TTITLE14=Man! I Feel Like A Woman!
TTITLE15=Love Gets Me Every Time
TTITLE16=Rock This Country!
TTITLE17=That Don't Impress Me Much (Dance Mix Edit)
TTITLE18=From This Moment On (Dance Mix)
TTITLE19=Honey, I'm Home (Live - Direct TV Mix)
EXTD=
EXTT0=
EXTT1=
EXTT2=
EXTT3=
EXTT4=
EXTT5=
EXTT6=
EXTT7=
EXTT8=
EXTT9=
EXTT10=
EXTT11=
EXTT12=
EXTT13=
EXTT14=
EXTT15=
EXTT16=
EXTT17=
EXTT18=
EXTT19=
PLAYORDER=
